<svg xmlns="http://www.w3.org/2000/svg" class="ionicon" viewBox="0 0 512 512">

  <symbol id="close">
    <title id="icon-title">Close</title>
    <path
      fill="currentColor"
      d="M289.94 256l95-95A24 24 0 00351 127l-95 95-95-95a24 24 0 00-34 34l95 95-95 95a24 24 0 1034 34l95-95 95 95a24 24 0 0034-34z"
    />
  </symbol>


  <symbol id="down">
    <title id="icon-title">Down</title>
    <path
      fill="none"
      stroke="currentColor"
      stroke-linecap="round"
      stroke-linejoin="round"
      stroke-width="48"
      d="M112 184l144 144 144-144"
    />
  </symbol>

  <symbol id="left">
    <title id="icon-title">Left</title>
    <path
      fill="none"
      stroke="currentColor"
      stroke-linecap="round"
      stroke-linejoin="round"
      stroke-width="48"
      d="M328 112L184 256l144 144"
    />  
  </symbol>

  <symbol id="menu">
    <title id="icon-title">Menu</title>
    <path
      fill="none"
      stroke="currentColor"
      stroke-linecap="round"
      stroke-miterlimit="10"
      stroke-width="48"
      d="M88 152h336M88 256h336M88 360h336"
    />
  </symbol>

  <symbol id="play">
    <title id="icon-title">Play</title>
    <path
      fill="currentColor"
      d="M133 440a35.37 35.37 0 01-17.5-4.67c-12-6.8-19.46-20-19.46-34.33V111c0-14.37 7.46-27.53 19.46-34.33a35.13 35.13 0 0135.77.45l247.85 148.36a36 36 0 010 61l-247.89 148.4A35.5 35.5 0 01133 440z"
    />
  </symbol>

  <symbol id="pause">
    <title id="icon-title">Pause</title>
    <path
      fill="currentColor"
      d="M208 432h-48a16 16 0 01-16-16V96a16 16 0 0116-16h48a16 16 0 0116 16v320a16 16 0 01-16 16zM352 432h-48a16 16 0 01-16-16V96a16 16 0 0116-16h48a16 16 0 0116 16v320a16 16 0 01-16 16z"
    />
  </symbol>

  <symbol id="return-up-back">
    <title id="icon-title">Return up back</title>    
    <path
      fill="none"
      stroke="currentColor"
      stroke-linecap="round"
      stroke-linejoin="round"
      stroke-width="32"
      d="M112 160l-64 64 64 64"
    /><path
      d="M64 224h294c58.76 0 106 49.33 106 108v20"
      fill="none"
      stroke="currentColor"
      stroke-linecap="round"
      stroke-linejoin="round"
      stroke-width="32"
    />
  </symbol>

  <symbol id="right">
    <title id="icon-title">Right</title>
    <path
      fill="none"
      stroke="currentColor"
      stroke-linecap="round"
      stroke-linejoin="round"
      stroke-width="48"
      d="M184 112l144 144-144 144"
    />
  </symbol>

  <symbol id="rotate">
    <title id="icon-title">Rotate</title>
    <path
      d="M320 146s24.36-12-64-12a160 160 0 10160 160"
      fill="none"
      stroke="currentColor"
      stroke-linecap="round"
      stroke-miterlimit="10"
      stroke-width="32"
    /><path
      fill="none"
      stroke="currentColor"
      stroke-linecap="round"
      stroke-linejoin="round"
      stroke-width="32"
      d="M256 58l80 80-80 80"
    />  
  </symbol>

  <symbol id="volume-high">
    <title id="icon-title">Volume High</title>
    <path
      fill="currentColor"
      d="M232 416a23.88 23.88 0 01-14.2-4.68 8.27 8.27 0 01-.66-.51L125.76 336H56a24 24 0 01-24-24V200a24 24 0 0124-24h69.75l91.37-74.81a8.27 8.27 0 01.66-.51A24 24 0 01256 120v272a24 24 0 01-24 24zm-106.18-80zm-.27-159.86zM320 336a16 16 0 01-14.29-23.19c9.49-18.87 14.3-38 14.3-56.81 0-19.38-4.66-37.94-14.25-56.73a16 16 0 0128.5-14.54C346.19 208.12 352 231.44 352 256c0 23.86-6 47.81-17.7 71.19A16 16 0 01320 336z"
    /><path
      fill="currentColor"
      d="M368 384a16 16 0 01-13.86-24C373.05 327.09 384 299.51 384 256c0-44.17-10.93-71.56-29.82-103.94a16 16 0 0127.64-16.12C402.92 172.11 416 204.81 416 256c0 50.43-13.06 83.29-34.13 120a16 16 0 01-13.87 8z"
    /><path
      fill="currentColor"
      d="M416 432a16 16 0 01-13.39-24.74C429.85 365.47 448 323.76 448 256c0-66.5-18.18-108.62-45.49-151.39a16 16 0 1127-17.22C459.81 134.89 480 181.74 480 256c0 64.75-14.66 113.63-50.6 168.74A16 16 0 01416 432z"
    />
  </symbol>

  <symbol id="volume-off">
    <title id="icon-title">Volume Off</title>
    <path
      fill="currentColor"
      d="M344 416a23.92 23.92 0 01-14.21-4.69c-.23-.16-.44-.33-.66-.51l-91.46-74.9H168a24 24 0 01-24-24V200.07a24 24 0 0124-24h69.65l91.46-74.9c.22-.18.43-.35.66-.51A24 24 0 01368 120v272a24 24 0 01-24 24z"
    />  
  </symbol>
</svg>
